# xmcd
#
# Track frame offsets: 
#        150
#        21495
#        37705
#        58515
#        73100
#        92048
#        112585
#        125245
#        151570
#        166363
#        183943
#        201495
#        224083
#        235528
#        256678
#        275223
#
# Disc length: 3944 seconds
#
# Revision: 0
# Processed by: cddbd v1.5.2PL0 Copyright (c) Steve Scherf et al.
# Submitted via: ExactAudioCopy v0.95b4
#
DISCID=de0f6610
DTITLE=Forrest McDonald - I Need You
DYEAR=1995
DGENRE=Blues
TTITLE0=I Need You
TTITLE1=Keep On Trying
TTITLE2=Lying Eyes
TTITLE3=Capetown Retreat
TTITLE4=Tell Me  Why
TTITLE5=Take It To The Top
TTITLE6=Hook, Line and Sinker
TTITLE7=Jimi's Revemge
TTITLE8=Not The Waiting Kind
TTITLE9=Hard To Lose
TTITLE10=Police Woman
TTITLE11=Graybeard
TTITLE12=The Cry
TTITLE13=That's How I Want Our Love
TTITLE14=It's Over
TTITLE15=Steppin' Out
EXTD=
EXTT0=
EXTT1=
EXTT2=
EXTT3=
EXTT4=
EXTT5=
EXTT6=
EXTT7=
EXTT8=
EXTT9=
EXTT10=
EXTT11=
EXTT12=
EXTT13=
EXTT14=
EXTT15=
PLAYORDER=
